<svg width="42" height="45" viewBox="0 0 42 45" fill="none" xmlns="http://www.w3.org/2000/svg">
<g id="Group 167">
<path id="Vector 34" d="M3.55253 1.18457H2.13142C1.89457 1.57932 1.42087 2.5583 1.42087 3.31622C1.42087 4.26362 1.42087 4.26362 1.18397 5.44787C0.947071 6.63213 1.42087 6.39528 1.18397 7.34268C0.947071 8.29008 1.42087 8.52693 1.42087 9.47433C1.42087 10.4217 1.42087 10.6586 0.947173 14.2113C0.473473 17.7641 0.947173 15.3956 0.473473 17.0535C-0.000227481 18.7115 0.473473 18.0009 0.473473 19.422V22.7379C0.473473 24.8696 0.710323 24.3959 0.947173 25.817C1.18402 27.2381 1.18402 27.0012 1.42087 28.6592C1.65772 30.3171 1.42087 29.6066 1.65772 30.3171C1.89457 31.0277 2.84198 33.3962 3.55253 34.1068C4.26308 34.8173 4.49993 35.291 4.97363 35.7647C5.44733 36.2384 6.15788 36.4753 6.86843 37.1858C7.57898 37.8964 7.81583 38.1332 8.28953 38.8438C8.76323 39.5543 9.71063 40.028 10.4212 40.5017C11.1317 40.9754 11.3686 41.2123 12.5528 41.686C13.7371 42.1597 13.7371 42.1597 15.1582 42.6334C16.5793 43.1071 16.8161 43.1071 18.0004 43.1071C19.1846 43.1071 19.1846 43.3439 19.8952 43.1071C20.6057 42.8702 21.0794 42.8702 22.2637 42.8702C23.4479 42.8702 23.6848 42.8702 24.6322 42.6334L27.4744 41.9228C28.9902 41.5438 29.685 40.8175 29.8429 40.5017C31.5798 39.5543 35.1483 37.5648 35.5273 37.1858C36.001 36.7121 36.001 34.5805 36.2379 34.1068C36.4747 33.633 36.7116 33.3962 37.4221 32.9225C38.1327 32.4488 38.1327 32.4488 38.6064 31.7382C39.0801 31.0277 39.0801 31.2645 39.5538 30.3171C40.0275 29.3697 39.5538 29.3697 39.5538 28.1855C39.5538 27.0012 39.7906 26.0538 39.7906 24.8696C39.7906 23.6853 40.2643 23.6853 40.2643 22.7379C40.2643 21.7905 40.2643 21.3168 40.5012 20.1326C40.738 18.9483 40.5012 18.2378 40.5012 17.0535C40.5012 15.8693 40.738 14.9219 40.5012 13.2639C40.2643 11.606 40.738 10.8954 40.5012 9.47433C40.2643 8.05323 40.5012 8.05323 40.2643 7.10583C40.0275 6.15842 40.0275 3.31622 39.7906 2.36882C39.6011 1.6109 39.5538 1.26352 39.5538 1.18457H36.7116H32.4483H28.4218C26.7638 1.18457 26.527 1.18457 24.6322 1.42142C22.7374 1.65827 21.79 1.42142 19.4215 1.42142H15.6319C13.9739 1.42142 13.2634 1.65827 12.316 1.42142C11.3686 1.18457 10.4212 1.18457 9.00008 1.18457H6.15788H3.55253Z" fill="white"/>
<g id="Group 166">
<rect id="Rectangle 302" x="20.8428" y="2.36865" width="18.0006" height="18.0006" fill="#78C900"/>
<path id="Rectangle 303" d="M2.36841 20.3696H20.8427V42.1599H17.5268C9.15507 42.1599 2.36841 35.3732 2.36841 27.0014V20.3696Z" fill="#78C900"/>
<g id="Rectangle 301">
<mask id="path-4-inside-1_270_1482" fill="white">
<path d="M0 1.3631C0 0.610282 0.610279 0 1.3631 0H39.8488C40.6017 0 41.2119 0.610279 41.2119 1.3631V23.9219C41.2119 35.3022 31.9863 44.5278 20.606 44.5278C9.22561 44.5278 0 35.3022 0 23.9219V1.3631Z"/>
</mask>
<path d="M0 1.3631C0 0.610282 0.610279 0 1.3631 0H39.8488C40.6017 0 41.2119 0.610279 41.2119 1.3631V23.9219C41.2119 35.3022 31.9863 44.5278 20.606 44.5278C9.22561 44.5278 0 35.3022 0 23.9219V1.3631Z" stroke="#78C900" stroke-width="4.737" mask="url(#path-4-inside-1_270_1482)"/>
</g>
</g>
</g>
</svg>
