<svg width="20" height="20" viewBox="0 0 20 20" fill="none" xmlns="http://www.w3.org/2000/svg">
<g id="Group 119">
<rect id="Rectangle 248" x="0.706055" y="1.98657" width="18.5769" height="17.4842" rx="2.00339" fill="#CAD3D7"/>
<path id="Rectangle 249" d="M0.706055 3.98997C0.706055 2.88352 1.603 1.98657 2.70945 1.98657H17.2796C18.386 1.98657 19.283 2.88352 19.283 3.98997V6.90399H0.706055V3.98997Z" fill="#F04235"/>
<rect id="Rectangle 250" x="4.53076" y="4.99146" width="4.4621" height="2.00339" rx="0.910634" transform="rotate(-90 4.53076 4.99146)" fill="#B0BEC5"/>
<rect id="Rectangle 251" x="13.4548" y="4.99146" width="4.4621" height="2.00339" rx="0.910634" transform="rotate(-90 13.4548 4.99146)" fill="#B0BEC5"/>
<rect id="Rectangle 252" x="4.62183" y="8.7251" width="2.00339" height="2.00339" rx="0.182127" fill="#8DA1AB"/>
<rect id="Rectangle 256" x="4.62183" y="11.6392" width="2.00339" height="2.00339" rx="0.182127" fill="#8DA1AB"/>
<rect id="Rectangle 260" x="4.62183" y="14.5532" width="2.00339" height="2.00339" rx="0.182127" fill="#8DA1AB"/>
<rect id="Rectangle 253" x="7.53564" y="8.7251" width="2.00339" height="2.00339" rx="0.182127" fill="#8DA1AB"/>
<rect id="Rectangle 257" x="7.53564" y="11.6392" width="2.00339" height="2.00339" rx="0.182127" fill="#8DA1AB"/>
<rect id="Rectangle 261" x="7.53564" y="14.5532" width="2.00339" height="2.00339" rx="0.182127" fill="#8DA1AB"/>
<rect id="Rectangle 254" x="10.4497" y="8.7251" width="2.00339" height="2.00339" rx="0.182127" fill="#8DA1AB"/>
<rect id="Rectangle 258" x="10.4497" y="11.6392" width="2.00339" height="2.00339" rx="0.182127" fill="#8DA1AB"/>
<rect id="Rectangle 262" x="10.4497" y="14.5532" width="2.00339" height="2.00339" rx="0.182127" fill="#8DA1AB"/>
<rect id="Rectangle 255" x="13.3638" y="8.7251" width="2.00339" height="2.00339" rx="0.182127" fill="#8DA1AB"/>
<rect id="Rectangle 259" x="13.3638" y="11.6392" width="2.00339" height="2.00339" rx="0.182127" fill="#8DA1AB"/>
<rect id="Rectangle 263" x="13.3638" y="14.5532" width="2.00339" height="2.00339" rx="0.182127" fill="#8DA1AB"/>
</g>
</svg>
