<svg width="31" height="29" viewBox="0 0 31 29" fill="none" xmlns="http://www.w3.org/2000/svg">
<g id="Group 182">
<path id="Rectangle 312" d="M10.8608 22.1821C10.8608 18.1042 14.1667 14.7983 18.2446 14.7983H23.4132C27.4912 14.7983 30.797 18.1042 30.797 22.1821V23.6589C30.797 25.29 29.4747 26.6124 27.8435 26.6124H13.8143C12.1832 26.6124 10.8608 25.29 10.8608 23.6589V22.1821Z" fill="#3C3C3C"/>
<circle id="Ellipse 56" cx="20.9517" cy="7.66088" r="5.66088" fill="#3C3C3C"/>
<path id="Rectangle 311" d="M9.38376 14.06C4.89803 14.06 1.26162 17.6964 1.26162 22.1821V23.6589C1.26162 25.6978 2.91453 27.3507 4.9535 27.3507H18.9826C21.0216 27.3507 22.6745 25.6978 22.6745 23.6589V22.1821C22.6745 17.6964 19.0381 14.06 14.5524 14.06H9.38376Z" fill="#3C3C3C" stroke="white" stroke-width="1.47675"/>
<circle id="Ellipse 55" cx="12.0911" cy="7.66088" r="6.39926" fill="#3C3C3C" stroke="white" stroke-width="1.47675"/>
</g>
</svg>
