<svg width="51" height="38" viewBox="0 0 51 38" fill="none" xmlns="http://www.w3.org/2000/svg">
<rect x="12.123" y="2.53644" width="26.752" height="34.5718" fill="#D17B02"/>
<path d="M37.2288 2.53642C37.2288 1.39991 38.1501 0.478577 39.2866 0.478577H45.0486C46.1851 0.478577 47.1064 1.39991 47.1064 2.53642V37.1082H37.2288V2.53642Z" fill="#FFC801"/>
<path d="M3.47998 2.53642C3.47998 1.39991 4.40131 0.478577 5.53783 0.478577H11.2998C12.4363 0.478577 13.3576 1.39991 13.3576 2.53642V37.1082H3.47998V2.53642Z" fill="#FFC801"/>
<rect x="0.599121" y="15.7067" width="49.7999" height="6.17354" rx="2.05785" fill="#FFC801"/>
<rect x="18.2964" y="9.9447" width="13.9934" height="17.2859" rx="2.05785" fill="#FFC801"/>
<path fill-rule="evenodd" clip-rule="evenodd" d="M26.8642 20.1653C26.7293 19.78 26.9076 19.3625 27.212 19.0905C27.8026 18.5629 28.1743 17.7956 28.1743 16.9413C28.1743 15.3502 26.8845 14.0604 25.2933 14.0604C23.7022 14.0604 22.4124 15.3502 22.4124 16.9413C22.4124 17.8109 22.7976 18.5904 23.4066 19.1186C23.7056 19.3779 23.8875 19.7755 23.7738 20.1545L22.9829 22.7908C22.9036 23.0549 23.1014 23.3207 23.3771 23.3207H27.3884C27.6719 23.3207 27.8706 23.0407 27.7769 22.7731L26.8642 20.1653Z" fill="#CC7700"/>
</svg>
