<svg width="19" height="20" viewBox="0 0 19 20" fill="none" xmlns="http://www.w3.org/2000/svg">
<circle cx="9.43747" cy="10.445" r="8.90793" fill="#CE9D00"/>
<circle cx="9.43747" cy="9.20187" r="8.90793" fill="#FFCA04"/>
<path d="M3.83822 14.8003C3.10295 14.0651 2.5197 13.1922 2.12178 12.2315C1.72385 11.2708 1.51904 10.2412 1.51904 9.20136C1.51904 8.16153 1.72385 7.13189 2.12178 6.17121C2.5197 5.21054 3.10295 4.33765 3.83822 3.60238C4.57349 2.86711 5.44638 2.28386 6.40705 1.88594C7.36773 1.48801 8.39738 1.2832 9.4372 1.2832C10.477 1.2832 11.5067 1.48801 12.4674 1.88594C13.428 2.28386 14.3009 2.86711 15.0362 3.60238L9.4372 9.20136L3.83822 14.8003Z" fill="#FDDE0A"/>
<rect x="1.0918" y="12.124" width="15.9682" height="5.44373" transform="rotate(-45 1.0918 12.124)" fill="#FFCA04"/>
</svg>
