<svg width="153" height="121" viewBox="0 0 153 121" fill="none" xmlns="http://www.w3.org/2000/svg">
<mask id="path-1-inside-1_89_226" fill="white">
<path fill-rule="evenodd" clip-rule="evenodd" d="M137.717 74.4256C155.422 59.7707 157.894 33.538 143.239 15.8332C128.584 -1.87158 102.352 -4.344 84.6467 10.3109L76.5088 17.0469L68.3312 10.4584C50.4341 -3.96099 24.2364 -1.14174 9.81698 16.7554C-4.60241 34.6525 -1.78315 60.8502 16.114 75.2696L68.9234 117.817C71.4418 119.846 74.5366 120.678 77.5198 120.387C80.3139 120.48 83.1518 119.591 85.4748 117.668L137.717 74.4256Z"/>
</mask>
<path d="M143.239 15.8332L134.019 23.4651L143.239 15.8332ZM137.717 74.4256L145.349 83.6458L137.717 74.4256ZM84.6467 10.3109L92.2786 19.5311H92.2786L84.6467 10.3109ZM76.5088 17.0469L68.9995 26.3673L76.611 32.4998L84.1407 26.2672L76.5088 17.0469ZM68.3312 10.4584L75.8404 1.13802V1.13801L68.3312 10.4584ZM9.81698 16.7554L0.496596 9.24609H0.496595L9.81698 16.7554ZM16.114 75.2696L8.60468 84.59H8.60468L16.114 75.2696ZM68.9234 117.817L61.4141 127.138L68.9234 117.817ZM77.5198 120.387L77.9165 108.425L77.1352 108.399L76.3571 108.475L77.5198 120.387ZM85.4748 117.668L77.8429 108.448L77.8429 108.448L85.4748 117.668ZM134.019 23.4651C144.459 36.0777 142.697 54.7655 130.085 65.2053L145.349 83.6458C168.146 64.7759 171.329 30.9983 152.459 8.2013L134.019 23.4651ZM92.2786 19.5311C104.891 9.09121 123.579 10.8525 134.019 23.4651L152.459 8.2013C133.589 -14.5957 99.8118 -17.7792 77.0148 1.09065L92.2786 19.5311ZM84.1407 26.2672L92.2786 19.5311L77.0148 1.09065L68.8769 7.82672L84.1407 26.2672ZM60.8219 19.7788L68.9995 26.3673L84.018 7.72657L75.8404 1.13802L60.8219 19.7788ZM19.1374 24.2646C29.4095 11.515 48.0723 9.50665 60.8219 19.7788L75.8404 1.13801C52.7958 -17.4286 19.0632 -13.7985 0.496596 9.24609L19.1374 24.2646ZM23.6232 65.9492C10.8736 55.6771 8.86523 37.0142 19.1374 24.2646L0.496595 9.24609C-18.0701 32.2907 -14.4399 66.0233 8.60468 84.59L23.6232 65.9492ZM76.4327 108.497L23.6232 65.9492L8.60468 84.59L61.4141 127.138L76.4327 108.497ZM76.3571 108.475C76.3581 108.474 76.3691 108.473 76.3912 108.48C76.4029 108.483 76.4149 108.488 76.4255 108.493C76.4367 108.499 76.4393 108.502 76.4327 108.497L61.4141 127.138C66.4697 131.211 72.7073 132.883 78.6825 132.299L76.3571 108.475ZM77.8429 108.448C77.8366 108.453 77.8384 108.451 77.8481 108.445C77.8573 108.44 77.8682 108.435 77.8795 108.432C77.9015 108.424 77.9141 108.424 77.9165 108.425L77.123 132.35C82.7257 132.535 88.4467 130.746 93.1067 126.888L77.8429 108.448ZM130.085 65.2053L77.8429 108.448L93.1067 126.888L145.349 83.6458L130.085 65.2053Z" fill="#3C3C3C" mask="url(#path-1-inside-1_89_226)"/>
</svg>
