<svg width="431" height="113" viewBox="0 0 431 113" fill="none" xmlns="http://www.w3.org/2000/svg">
<rect width="431" height="112" rx="13.8575" fill="#FFC800"/>
<path d="M34.5604 78.911C34.5604 83.9932 37.6422 94.1576 49.969 94.1576C44.8555 94.1576 34.6511 97.18 34.561 109.243C34.5612 109.297 34.561 109.351 34.5604 109.404C34.5604 109.35 34.5606 109.297 34.561 109.243C34.5478 104.111 31.4718 94.1576 19.1519 94.1576C24.288 94.1576 34.5604 91.1083 34.5604 78.911Z" fill="white"/>
<path d="M167.955 112.018L328.644 0.5H409.412C416.156 0.5 418.968 9.12309 413.521 13.0993L278.016 112.018H167.955Z" fill="#FFD12A"/>
<path d="M31.479 112.018L192.168 0.5H235.312L74.1828 112.018H31.479Z" fill="#FFD12A"/>
<path d="M376.191 12.6973C376.191 20.3932 380.858 35.7849 399.524 35.7849C391.781 35.7849 376.328 40.3618 376.192 58.6287C376.192 58.7108 376.192 58.7921 376.191 58.8726C376.191 58.791 376.191 58.7097 376.192 58.6287C376.172 50.8565 371.514 35.7849 352.858 35.7849C360.636 35.7849 376.191 31.1674 376.191 12.6973Z" fill="white"/>
</svg>
