<svg width="64" height="51" viewBox="0 0 64 51" fill="none" xmlns="http://www.w3.org/2000/svg">
<rect y="31.9301" width="63.8602" height="18.4004" rx="9.2002" fill="#8F69CE"/>
<path d="M8.65918 21.6475C8.65918 9.69193 18.3511 0 30.3067 0H34.095C46.0506 0 55.7426 9.69193 55.7426 21.6475V31.9301H8.65918V21.6475Z" fill="#8F69CE"/>
<rect x="13.5298" y="7.0354" width="36.8008" height="43.2951" rx="18.4004" fill="#FFAE93"/>
<rect x="25.436" y="21.1063" width="4.87069" height="10.2826" rx="2.43535" fill="#C67154"/>
<rect x="33.5537" y="21.1063" width="4.87069" height="10.2826" rx="2.43535" fill="#C67154"/>
<path d="M40.6234 8.52495C36.7035 23.8457 20.9277 24.7742 13.5298 23.3234L14.3945 12.8774C24.7708 5.04296 44.5433 -6.79579 40.6234 8.52495Z" fill="#8F69CE"/>
<path d="M25.436 34.636H38.4246V37.3419C38.4246 40.9286 35.517 43.8362 31.9303 43.8362C28.3436 43.8362 25.436 40.9286 25.436 37.3419V34.636Z" fill="#FDFFF9"/>
</svg>
