<svg width="114" height="122" viewBox="0 0 114 122" fill="none" xmlns="http://www.w3.org/2000/svg">
<circle cx="57" cy="64.9766" r="57" fill="#CE9D00"/>
<circle cx="57" cy="57.0234" r="57" fill="#FFCA04"/>
<path d="M21.1734 92.8499C16.4686 88.145 12.7365 82.5596 10.1903 76.4124C7.64403 70.2652 6.3335 63.6767 6.3335 57.0231C6.3335 50.3695 7.64403 43.781 10.1903 37.6338C12.7365 31.4866 16.4686 25.9012 21.1734 21.1964C25.8783 16.4915 31.4637 12.7594 37.6109 10.2132C43.758 7.66697 50.3465 6.35644 57.0002 6.35645C63.6538 6.35645 70.2423 7.66698 76.3895 10.2132C82.5366 12.7595 88.1221 16.4915 92.8269 21.1964L57.0002 57.0231L21.1734 92.8499Z" fill="#FDDE0A"/>
<rect x="3.59668" y="75.7207" width="102.177" height="34.8333" transform="rotate(-45 3.59668 75.7207)" fill="#FFCA04"/>
</svg>
