<svg width="301" height="46" viewBox="0 0 301 46" fill="none" xmlns="http://www.w3.org/2000/svg">
<path d="M300.8 45.1352H10.4737C6.83332 45.2525 3.5438 45.2381 0.799805 45.1352H10.4737C28.8529 44.5428 56.176 40.5916 67.3973 27.7078C80.8413 12.2721 93.7459 21.2763 98.5176 27.7078C105.779 31.8572 125.433 37.0937 134.617 18.3717C150.8 -14.6156 165.115 4.67842 171.339 15.8821C174.659 21.0688 178.933 31.5665 191.879 22.106C204.825 12.6454 219.265 20.2388 224.866 25.218C230.675 31.8571 253.995 45.1352 300.8 45.1352Z" fill="#E5E5E5"/>
<path d="M10.4737 45.1354C6.83332 45.2527 3.5438 45.2383 0.799805 45.1354H10.4737C28.8529 44.543 56.176 40.5918 67.3973 27.708V45.1354H10.4737Z" fill="#1CB0F6"/>
<path d="M224.866 25.2181C219.265 20.2389 204.825 12.6455 191.879 22.1061V45.1353H300.8C253.995 45.1353 230.675 31.8572 224.866 25.2181Z" fill="#1CB0F6"/>
</svg>
